<svg width="1024" height="1024" viewBox="0 0 1024 1024" fill="none" xmlns="http://www.w3.org/2000/svg">
  <defs>
    <linearGradient id="bg" x1="176" y1="126" x2="848" y2="898" gradientUnits="userSpaceOnUse">
      <stop offset="0" stop-color="#111827"/>
      <stop offset="0.46" stop-color="#07111f"/>
      <stop offset="1" stop-color="#020617"/>
    </linearGradient>
    <linearGradient id="island" x1="244" y1="344" x2="780" y2="680" gradientUnits="userSpaceOnUse">
      <stop offset="0" stop-color="#101827"/>
      <stop offset="0.5" stop-color="#050812"/>
      <stop offset="1" stop-color="#0f172a"/>
    </linearGradient>
    <linearGradient id="core" x1="361" y1="379" x2="662" y2="653" gradientUnits="userSpaceOnUse">
      <stop offset="0" stop-color="#2dd4bf"/>
      <stop offset="0.58" stop-color="#14b8a6"/>
      <stop offset="1" stop-color="#0f766e"/>
    </linearGradient>
    <linearGradient id="pulse" x1="608" y1="336" x2="756" y2="486" gradientUnits="userSpaceOnUse">
      <stop offset="0" stop-color="#fb923c"/>
      <stop offset="1" stop-color="#f97316"/>
    </linearGradient>
    <filter id="shadow" x="101" y="111" width="822" height="822" filterUnits="userSpaceOnUse" color-interpolation-filters="sRGB">
      <feFlood flood-opacity="0" result="BackgroundImageFix"/>
      <feColorMatrix in="SourceAlpha" type="matrix" values="0 0 0 0 0 0 0 0 0 0 0 0 0 0 0 0 0 0 127 0" result="hardAlpha"/>
      <feOffset dy="28"/>
      <feGaussianBlur stdDeviation="42"/>
      <feComposite in2="hardAlpha" operator="out"/>
      <feColorMatrix type="matrix" values="0 0 0 0 0.01 0 0 0 0 0.03 0 0 0 0 0.07 0 0 0 0.45 0"/>
      <feBlend mode="normal" in2="BackgroundImageFix" result="effect1_dropShadow"/>
      <feBlend mode="normal" in="SourceGraphic" in2="effect1_dropShadow" result="shape"/>
    </filter>
  </defs>

  <g filter="url(#shadow)">
    <rect x="164" y="148" width="696" height="696" rx="184" fill="url(#bg)"/>
    <rect x="190" y="174" width="644" height="644" rx="164" stroke="#f8fafc" stroke-opacity="0.08" stroke-width="16"/>
  </g>

  <path d="M262 514C262 418.455 339.455 341 435 341H589C684.545 341 762 418.455 762 514C762 609.545 684.545 687 589 687H435C339.455 687 262 609.545 262 514Z" fill="url(#island)"/>
  <path d="M292 514C292 435.023 356.023 371 435 371H589C667.977 371 732 435.023 732 514C732 592.977 667.977 657 589 657H435C356.023 657 292 592.977 292 514Z" stroke="#f8fafc" stroke-opacity="0.08" stroke-width="18"/>

  <circle cx="512" cy="514" r="116" fill="url(#core)"/>
  <circle cx="512" cy="514" r="78" fill="#05111f"/>
  <path d="M455 518C474.214 493.125 493.383 480.812 512.5 481C531.617 481.188 550.617 493.5 569.5 518C550.079 544.057 531.079 556.901 512.5 556.532C493.921 556.164 474.755 543.32 455 518Z" fill="#f8fafc"/>
  <circle cx="512" cy="518" r="25" fill="#14b8a6"/>

  <path d="M652 413C652 381.52 677.52 356 709 356C740.48 356 766 381.52 766 413C766 444.48 740.48 470 709 470H666C658.268 470 652 463.732 652 456V413Z" fill="url(#pulse)"/>
  <circle cx="709" cy="413" r="18" fill="#fff7ed"/>

  <path d="M332 514H383" stroke="#2dd4bf" stroke-width="24" stroke-linecap="round"/>
  <path d="M641 514H692" stroke="#2dd4bf" stroke-width="24" stroke-linecap="round"/>
  <path d="M512 317V273" stroke="#14b8a6" stroke-opacity="0.65" stroke-width="22" stroke-linecap="round"/>
  <path d="M512 755V711" stroke="#14b8a6" stroke-opacity="0.65" stroke-width="22" stroke-linecap="round"/>
</svg>
